<svg width="32" height="32" viewBox="0 0 32 32" fill="none" xmlns="http://www.w3.org/2000/svg">
  <rect width="32" height="32" rx="8" fill="url(#bg)"/>
  <defs>
    <linearGradient id="bg" x1="0" y1="0" x2="32" y2="32" gradientUnits="userSpaceOnUse">
      <stop offset="0%" stop-color="#2563eb"/>
      <stop offset="100%" stop-color="#06b6d4"/>
    </linearGradient>
  </defs>
  <!-- Left horn -->
  <path d="M11.6 14.4C10 10.8 7.2 6 5.2 2.4C4.4 0.8 5.6 0 6.8 0.8C8 1.6 8.4 4.4 8.8 6.8C9.2 9.2 10.4 12 12.8 14Z" fill="white"/>
  <!-- Right horn -->
  <path d="M20.4 14.4C22 10.8 24.8 6 26.8 2.4C27.6 0.8 26.4 0 25.2 0.8C24 1.6 23.6 4.4 23.2 6.8C22.8 9.2 21.6 12 19.2 14Z" fill="white"/>
  <!-- Left ear -->
  <path d="M6 17.6C4 15.6 2.8 19.2 4.4 20.4C5.6 21.2 8 20.4 7.2 18C6.8 16.8 6 17.6 6 17.6Z" fill="white"/>
  <!-- Right ear -->
  <path d="M26 17.6C28 15.6 29.2 19.2 27.6 20.4C26.4 21.2 24 20.4 24.8 18C25.2 16.8 26 17.6 26 17.6Z" fill="white"/>
  <!-- Face -->
  <ellipse cx="16" cy="22.4" rx="9.6" ry="10.4" fill="white"/>
  <!-- Muzzle -->
  <ellipse cx="16" cy="27.6" rx="5.6" ry="4" fill="rgba(148,163,184,0.25)"/>
  <!-- Left eye -->
  <rect x="10.8" y="21.6" width="3.2" height="2" rx="0.8" fill="#0f172a"/>
  <!-- Right eye -->
  <rect x="18" y="21.6" width="3.2" height="2" rx="0.8" fill="#0f172a"/>
  <!-- Beard -->
  <path d="M13.2 32.8C12.8 34.8 14 35.2 16 35.2C18 35.2 19.2 34.8 18.8 32.8C18 31.6 14 31.6 13.2 32.8Z" fill="white"/>
</svg>
