<svg width="32" height="32" viewBox="0 0 32 32" fill="none" xmlns="http://www.w3.org/2000/svg">
  <rect width="32" height="32" rx="8" fill="url(#bg)"/>
  <defs>
    <linearGradient id="bg" x1="0" y1="0" x2="32" y2="32" gradientUnits="userSpaceOnUse">
      <stop offset="0%" stop-color="#1d4ed8"/>
      <stop offset="100%" stop-color="#2563eb"/>
    </linearGradient>
  </defs>
  <!-- Left horn -->
  <path d="M10.5 13C9 9.5 7 5 5 2C4.2 0.5 5.2 -0.2 6.4 0.5C7.6 1.2 8 4 8.4 6.4C8.8 8.8 10 11.2 12 13Z" fill="white"/>
  <!-- Right horn -->
  <path d="M21.5 13C23 9.5 25 5 27 2C27.8 0.5 26.8 -0.2 25.6 0.5C24.4 1.2 24 4 23.6 6.4C23.2 8.8 22 11.2 20 13Z" fill="white"/>
  <!-- Left ear -->
  <path d="M5 16C3 14 2 17.5 3.5 18.5C4.8 19.3 7 18.5 6.5 16.5C6.2 15.5 5 16 5 16Z" fill="white"/>
  <!-- Right ear -->
  <path d="M27 16C29 14 30 17.5 28.5 18.5C27.2 19.3 25 18.5 25.5 16.5C25.8 15.5 27 16 27 16Z" fill="white"/>
  <!-- Face -->
  <ellipse cx="16" cy="21.5" rx="9.5" ry="10.5" fill="white"/>
  <!-- Muzzle -->
  <ellipse cx="16" cy="26.5" rx="5.5" ry="3.5" fill="rgba(148,163,184,0.25)"/>
  <!-- Left eye -->
  <rect x="10.5" y="20" width="3" height="2" rx="0.8" fill="#0f172a"/>
  <!-- Right eye -->
  <rect x="18.5" y="20" width="3" height="2" rx="0.8" fill="#0f172a"/>
  <!-- Beard -->
  <path d="M12.5 30.5C12 32 13.5 32.5 16 32.5C18.5 32.5 20 32 19.5 30.5C18.5 29.5 13.5 29.5 12.5 30.5Z" fill="white"/>
</svg>
